Coordinates
version=1
nRows=11
nColumns=40
inDegrees=yes

Units are S.I. units (second, meters, Newtons, ...)
If the header above contains a line with 'inDegrees', this indicates whether rotational values are in degrees (yes) or radians (no).

endheader
time	pelvis_tilt	pelvis_list	pelvis_rotation	pelvis_tx	pelvis_ty	pelvis_tz	hip_flexion_r	hip_adduction_r	hip_rotation_r	knee_angle_r	knee_angle_r_beta	ankle_angle_r	subtalar_angle_r	mtp_angle_r	hip_flexion_l	hip_adduction_l	hip_rotation_l	knee_angle_l	knee_angle_l_beta	ankle_angle_l	subtalar_angle_l	mtp_angle_l	lumbar_extension	lumbar_bending	lumbar_rotation	arm_flex_r	arm_add_r	arm_rot_r	elbow_flex_r	pro_sup_r	wrist_flex_r	wrist_dev_r	arm_flex_l	arm_add_l	arm_rot_l	elbow_flex_l	pro_sup_l	wrist_flex_l	wrist_dev_l
      0.16000000	      8.54402757	      6.67335664	     -7.12427724	     -1.06309590	      0.97546941	      0.23786198	    -12.82853014	    -13.31366517	     -8.22440396	     49.68517283	      0.86716986	    -16.14812539	      0.00000000	      0.00000000	     11.62796666	      8.67543260	     -5.66811244	     14.06664959	      0.24550935	     -7.79240924	      0.00000000	      0.00000000	    -20.46530233	     -9.44974987	      3.66734537	     -4.59661707	     -8.22495998	     -3.14495606	     44.73364379	     88.79372644	    -14.41078651	     -3.00683473	    -13.02142956	     -6.82504857	     -1.55690337	     32.45259123	     89.00606673	     -8.00046490	      1.10682838
      0.17000000	      8.25526260	      7.73997251	     -6.95887476	     -1.04878978	      0.97587943	      0.23674389	    -10.43325224	    -14.80087414	     -7.57722602	     53.34285827	      0.93100851	    -16.76794251	      0.00000000	      0.00000000	     11.38555623	      9.95267534	     -5.51250358	     14.43302583	      0.25190382	     -7.04778832	      0.00000000	      0.00000000	    -20.14413914	    -10.48729877	      2.83341254	     -4.63098366	     -7.90902671	     -2.99922758	     43.92149406	     88.80165377	    -14.42801344	     -2.92743910	    -12.66369272	     -7.11108282	     -1.84053904	     33.23139640	     89.01056381	     -7.80681342	      1.26494335
      0.18000000	      7.90027586	      8.59871654	     -6.78775611	     -1.03489053	      0.97643318	      0.23583945	     -7.89647650	    -15.91356061	     -6.68730287	     56.77593416	      0.99092699	    -16.80507083	      0.00000000	      0.00000000	     11.08372322	     10.99162500	     -5.40332768	     14.61691195	      0.25511324	     -6.16983441	      0.00000000	      0.00000000	    -19.81235950	    -11.32292713	      1.99348949	     -4.54802572	     -7.63471768	     -2.63274472	     43.00615911	     88.79260539	    -14.45895839	     -2.95103805	    -12.33533303	     -7.37690080	     -2.27883180	     34.17719887	     89.03197192	     -7.51622171	      1.52074358
      0.19000000	      8.16158747	      8.91745421	     -6.41984473	     -1.02128186	      0.97856971	      0.23486164	     -6.26116665	    -16.30465794	     -5.97364206	     59.53268546	      1.03904137	    -16.72509410	      0.00000000	      0.00000000	      9.84630085	     11.60717516	     -4.78714380	     14.51510064	      0.25333630	     -5.22920082	      0.00000000	      0.00000000	    -20.33560752	    -11.54775120	      1.21115959	     -4.57921759	     -7.39133990	     -2.65423063	     42.44421527	     88.79202394	    -14.48833467	     -2.91395715	    -11.64808795	     -7.67792834	     -2.16706247	     34.91758248	     89.04095819	     -7.40975023	      1.48379401
      0.20000000	      7.41513329	      9.84839714	     -6.31211348	     -1.00754706	      0.97864653	      0.23420907	     -3.14202076	    -17.34626916	     -4.97462726	     62.62364102	      1.09298873	    -15.28279827	      0.00000000	      0.00000000	      9.76348379	     12.64852147	     -5.11600492	     14.31107491	      0.24977538	     -4.38487091	      0.00000000	      0.00000000	    -19.51276074	    -12.46285983	      0.47329394	     -4.51829401	     -7.10955690	     -2.15258907	     41.42462380	     88.79230152	    -14.54602835	     -2.87652022	    -11.44569216	     -7.94603579	     -2.78831273	     36.13721849	     89.05302654	     -7.27747205	      1.72846472
      0.21000000	      7.50693588	      9.84053450	     -5.93360197	     -0.99428809	      0.98096124	      0.23331878	     -1.31317177	    -17.23493023	     -4.32730488	     64.77445167	      1.13052745	    -14.42759788	      0.00000000	      0.00000000	      8.47359246	     12.88534290	     -4.57949070	     13.85892122	      0.24188381	     -3.65469922	      0.00000000	      0.00000000	    -19.84587129	    -12.32255218	     -0.13342288	     -4.53011630	     -6.94737881	     -2.02429461	     40.73762207	     88.78791705	    -14.57086302	     -2.83494044	    -10.72221253	     -8.17238162	     -2.76627800	     36.98391847	     89.06981346	     -7.18795891	      1.70876934
      0.22000000	      6.83066975	     10.23708183	     -5.72948383	     -0.98104402	      0.98170586	      0.23278898	      1.60791131	    -17.49153586	     -3.47399880	     67.01518331	      1.16963560	    -12.48017618	      0.00000000	      0.00000000	      8.11292661	     13.37983457	     -4.66073391	     13.43891344	      0.23455329	     -2.97078424	      0.00000000	      0.00000000	    -19.18618590	    -12.66173898	     -0.88349399	     -4.32981770	     -6.77009808	     -1.25114237	     39.63576817	     88.76534316	    -14.67349556	     -2.88897235	    -10.48131334	     -8.35010953	     -3.52473410	     38.22739581	     89.09919367	     -7.10384249	      1.96813394
      0.23000000	      6.82209112	     10.00464657	     -5.33733489	     -0.96771801	      0.98411030	      0.23200569	      3.41534555	    -17.05920376	     -3.12900643	     68.41835836	      1.19412562	    -10.90794818	      0.00000000	      0.00000000	      6.74781327	     13.34841742	     -4.17437472	     12.71078833	      0.22184511	     -2.36294754	      0.00000000	      0.00000000	    -19.37344092	    -12.26578515	     -1.36874606	     -4.42612175	     -6.66879509	     -1.08431307	     39.02432201	     88.76538413	    -14.71572111	     -2.85438743	     -9.79739087	     -8.53854505	     -3.53633889	     39.19951783	     89.10421825	     -7.05603575	      1.89642303
      0.24000000	      6.36090892	      9.91045837	     -4.91125786	     -0.95466579	      0.98567160	      0.23122187	      5.77984419	    -16.72064746	     -2.82869783	     69.63221300	      1.21531138	     -9.02322238	      0.00000000	      0.00000000	      5.97253404	     13.38249233	     -3.90044980	     12.09395264	      0.21107929	     -1.84676560	      0.00000000	      0.00000000	    -19.05752370	    -12.00523580	     -2.22169386	     -4.20748154	     -6.58129211	     -0.26417732	     38.05211539	     88.74321530	    -14.86120123	     -2.90876718	     -9.48275236	     -8.63686330	     -4.22756595	     40.47336322	     89.12837723	     -7.15776012	      1.96841769
      0.25000000	      6.31375050	      9.47531719	     -4.53293079	     -0.94130870	      0.98809884	      0.23043780	      7.48314148	    -16.04516135	     -2.78869886	     70.25135531	      1.22611745	     -7.49483663	      0.00000000	      0.00000000	      4.59185557	     13.09684799	     -3.50173636	     11.26696659	      0.19664566	     -1.50856234	      0.00000000	      0.00000000	    -19.14745116	    -11.35670680	     -2.59509824	     -4.39409083	     -6.51908922	     -0.20422977	     37.61754026	     88.73535026	    -14.88462844	     -2.85164144	     -8.78538977	     -8.76488363	     -4.16223932	     41.37886339	     89.14227916	     -7.15248356	      1.84366428
      0.26000000	      6.13897996	      8.98427855	     -4.08476476	     -0.92793634	      0.99029962	      0.22953516	      9.17722702	    -15.30932571	     -2.97555330	     70.43960477	      1.22940303	     -5.68661775	      0.00000000	      0.00000000	      3.37442473	     12.73139711	     -3.06800391	     10.48887718	      0.18306544	     -1.17919649	      0.00000000	      0.00000000	    -19.09089270	    -10.63094009	     -2.96505119	     -4.59148170	     -6.51201535	     -0.01649712	     37.13089577	     88.74650111	    -14.89203918	     -2.77564007	     -8.12426416	     -8.83430432	     -4.25194306	     42.34856097	     89.14620860	     -7.22480187	      1.71501008
